<svg width="38" height="58" viewBox="0 0 38 58" fill="none" xmlns="http://www.w3.org/2000/svg">
<path d="M8.125 10.875C8.125 7.99077 9.27076 5.22467 11.3102 3.18521C13.3497 1.14576 16.1158 0 19 0C21.8842 0 24.6503 1.14576 26.6898 3.18521C28.7292 5.22467 29.875 7.99077 29.875 10.875V29C29.875 31.8842 28.7292 34.6503 26.6898 36.6898C24.6503 38.7292 21.8842 39.875 19 39.875C16.1158 39.875 13.3497 38.7292 11.3102 36.6898C9.27076 34.6503 8.125 31.8842 8.125 29V10.875Z" fill="white"/>
<path d="M2.6875 23.5625C3.16821 23.5625 3.62922 23.7535 3.96913 24.0934C4.30904 24.4333 4.5 24.8943 4.5 25.375V29C4.5 32.8456 6.02767 36.5338 8.74695 39.253C11.4662 41.9723 15.1544 43.5 19 43.5C22.8456 43.5 26.5338 41.9723 29.253 39.253C31.9723 36.5338 33.5 32.8456 33.5 29V25.375C33.5 24.8943 33.691 24.4333 34.0309 24.0934C34.3708 23.7535 34.8318 23.5625 35.3125 23.5625C35.7932 23.5625 36.2542 23.7535 36.5941 24.0934C36.934 24.4333 37.125 24.8943 37.125 25.375V29C37.1251 33.4933 35.4561 37.8264 32.4419 41.1588C29.4278 44.4911 25.2833 46.585 20.8125 47.0344V54.375H31.6875C32.1682 54.375 32.6292 54.566 32.9691 54.9059C33.309 55.2458 33.5 55.7068 33.5 56.1875C33.5 56.6682 33.309 57.1292 32.9691 57.4691C32.6292 57.809 32.1682 58 31.6875 58H6.3125C5.8318 58 5.37078 57.809 5.03087 57.4691C4.69096 57.1292 4.5 56.6682 4.5 56.1875C4.5 55.7068 4.69096 55.2458 5.03087 54.9059C5.37078 54.566 5.8318 54.375 6.3125 54.375H17.1875V47.0344C12.7167 46.585 8.57223 44.4911 5.55806 41.1588C2.54389 37.8264 0.874944 33.4933 0.875 29V25.375C0.875 24.8943 1.06596 24.4333 1.40587 24.0934C1.74578 23.7535 2.2068 23.5625 2.6875 23.5625Z" fill="white"/>
</svg>
